<?xml version="1.0" encoding="utf-8"?>
<svg xmlns="http://www.w3.org/2000/svg">
<symbol id="arrow-down" viewBox="0 0 12 16">
<path fill-rule="evenodd" clip-rule="evenodd" d="M5.29289 15.2071C5.68342 15.5976 6.31658 15.5976 6.70711 15.2071L11.8536 10.0607C12.0488 9.8654 12.0488 9.54882 11.8536 9.35355C11.6583 9.15829 11.3417 9.15829 11.1464 9.35355L6.5 14L6.5 1.20703C6.5 0.930889 6.27614 0.707031 6 0.707031C5.72386 0.707031 5.5 0.930889 5.5 1.20703L5.5 14L0.853554 9.35355C0.658291 9.15829 0.34171 9.15829 0.146447 9.35355C-0.0488152 9.54881 -0.0488152 9.8654 0.146447 10.0607L5.29289 15.2071Z"/>

</symbol>
<symbol id="arrow-up" viewBox="0 0 12 16">
<path fill-rule="evenodd" clip-rule="evenodd" d="M6.70711 0.999924C6.31658 0.6094 5.68342 0.609401 5.29289 0.999924L0.146447 6.14637C-0.0488156 6.34163 -0.0488156 6.65822 0.146447 6.85348C0.341709 7.04874 0.658291 7.04874 0.853553 6.85348L5.5 2.20703V15C5.5 15.2761 5.72386 15.5 6 15.5C6.27614 15.5 6.5 15.2761 6.5 15V2.20703L11.1464 6.85348C11.3417 7.04874 11.6583 7.04874 11.8536 6.85348C12.0488 6.65822 12.0488 6.34163 11.8536 6.14637L6.70711 0.999924Z"/>

</symbol>
<symbol id="bold" viewBox="0 0 12 14">
<path fill-rule="evenodd" clip-rule="evenodd" d="M0 1C0 0.447715 0.447715 0 1 0H6.9375C7.95201 0 8.92286 0.407321 9.63704 1.12901C10.3508 1.85033 10.75 2.82645 10.75 3.84208C10.75 4.71323 10.4563 5.5553 9.92233 6.23245C10.2393 6.41511 10.5334 6.64083 10.7955 6.90571C11.5679 7.68626 12 8.7427 12 9.84208C12 10.9415 11.5679 11.9979 10.7955 12.7784C10.0228 13.5593 8.97243 14 7.875 14H1C0.447715 14 0 13.5523 0 13V1ZM2 7.68421V12H7.875C8.43517 12 8.97456 11.7752 9.37391 11.3717C9.7736 10.9678 10 10.4178 10 9.84208C10 9.26641 9.7736 8.7164 9.37391 8.31251C8.97459 7.90898 8.43521 7.68421 7.875 7.68421H2ZM6.9375 5.68421H2V2H6.9375C7.41483 2 7.87472 2.1915 8.21544 2.5358C8.55653 2.88048 8.75 3.35016 8.75 3.84208C8.75 4.33399 8.55652 4.80368 8.21544 5.14836C7.87469 5.49269 7.41478 5.68421 6.9375 5.68421Z"/>

</symbol>
<symbol id="delete" viewBox="0 0 16 16">
<path fill-rule="evenodd" clip-rule="evenodd" d="M5 1.5C5 1.22386 5.22386 1 5.5 1H10.5C10.7761 1 11 1.22386 11 1.5V3H5V1.5ZM4 3V1.5C4 0.671573 4.67157 0 5.5 0H10.5C11.3284 0 12 0.671573 12 1.5V3H13.5H15C15.2761 3 15.5 3.22386 15.5 3.5C15.5 3.77614 15.2761 4 15 4H14V14.5C14 15.3284 13.3284 16 12.5 16H3.5C2.67157 16 2 15.3284 2 14.5V4H1C0.723858 4 0.5 3.77614 0.5 3.5C0.5 3.22386 0.723858 3 1 3H2.5H4ZM11.5 4H4.5H3V14.5C3 14.7761 3.22386 15 3.5 15H12.5C12.7761 15 13 14.7761 13 14.5V4H11.5ZM6.5 6.5C6.77614 6.5 7 6.72386 7 7V12C7 12.2761 6.77614 12.5 6.5 12.5C6.22386 12.5 6 12.2761 6 12V7C6 6.72386 6.22386 6.5 6.5 6.5ZM10 7C10 6.72386 9.77614 6.5 9.5 6.5C9.22386 6.5 9 6.72386 9 7V12C9 12.2761 9.22386 12.5 9.5 12.5C9.77614 12.5 10 12.2761 10 12V7Z"/>

</symbol>
<symbol id="dots" viewBox="0 0 16 16">
  <g transform="translate(4 1.5)" fill-rule="evenodd">
    <circle cx="1.3" cy="1.3" r="1.3"/>
    <circle cx="6.5" cy="1.3" r="1.3"/>
    <circle cx="6.5" cy="6.5" r="1.3"/>
    <circle cx="1.3" cy="6.5" r="1.3"/>
    <circle cx="6.5" cy="11.7" r="1.3"/>
    <circle cx="1.3" cy="11.7" r="1.3"/>
  </g>

</symbol>
<symbol id="italic" viewBox="0 0 11 14">
<path fill-rule="evenodd" clip-rule="evenodd" d="M4.3125 0.4375C4.03636 0.4375 3.8125 0.661358 3.8125 0.9375C3.8125 1.21364 4.03636 1.4375 4.3125 1.4375H6.4649L3.37115 12.4375H0.9375C0.661358 12.4375 0.4375 12.6614 0.4375 12.9375C0.4375 13.2136 0.661358 13.4375 0.9375 13.4375H3.73424C3.74488 13.4378 3.75549 13.4378 3.76606 13.4375H6.5625C6.83864 13.4375 7.0625 13.2136 7.0625 12.9375C7.0625 12.6614 6.83864 12.4375 6.5625 12.4375H4.40994L7.50369 1.4375H9.9375C10.2136 1.4375 10.4375 1.21364 10.4375 0.9375C10.4375 0.661358 10.2136 0.4375 9.9375 0.4375H7.12462H4.3125Z"/>

</symbol>
<symbol id="link" viewBox="0 0 14 14">
<path fill-rule="evenodd" clip-rule="evenodd" d="M7.35302 3.30511L8.6548 1.95705C9.1144 1.52715 9.71219 1.29848 10.3249 1.31317C10.9412 1.32794 11.5319 1.58801 11.9731 2.04493C12.4149 2.50237 12.6722 3.12189 12.6868 3.77565C12.7014 4.42552 12.4748 5.0535 12.0583 5.5311L10.1943 7.45447L10.1931 7.45578C9.9688 7.6889 9.70323 7.8729 9.41209 7.99811C9.121 8.1233 8.80955 8.1875 8.49545 8.1875C8.18135 8.1875 7.8699 8.1233 7.57881 7.99811C7.28767 7.8729 7.0221 7.6889 6.79782 7.45578C6.60637 7.25678 6.28985 7.25066 6.09085 7.44211C5.89185 7.63356 5.88573 7.95009 6.07718 8.14909C6.39268 8.47703 6.76855 8.73821 7.18372 8.91676C7.59893 9.09533 8.04475 9.1875 8.49545 9.1875C8.94614 9.1875 9.39196 9.09533 9.80718 8.91676C10.2221 8.73833 10.5977 8.47737 10.9131 8.14974L10.9137 8.14909L12.7851 6.21802C12.7907 6.21228 12.7961 6.2064 12.8014 6.2004C13.3913 5.53016 13.7067 4.6536 13.6866 3.7533C13.6665 2.85297 13.3122 1.99203 12.6925 1.35027C12.0722 0.70799 11.2333 0.334658 10.3488 0.313455C9.46437 0.29225 8.60915 0.625022 7.96035 1.23739C7.95474 1.24269 7.94924 1.24812 7.94388 1.25368L6.63367 2.61045C6.44185 2.8091 6.44738 3.12563 6.64602 3.31745C6.84466 3.50928 7.16119 3.50375 7.35302 3.30511ZM4.58791 6.00189C4.879 5.8767 5.19045 5.8125 5.50455 5.8125C5.81865 5.8125 6.1301 5.8767 6.4212 6.00189C6.71233 6.1271 6.9779 6.3111 7.20218 6.54422C7.39363 6.74322 7.71015 6.74934 7.90915 6.55789C8.10815 6.36644 8.11427 6.04991 7.92282 5.85091C7.60732 5.52297 7.23145 5.26179 6.81628 5.08324C6.40107 4.90467 5.95525 4.8125 5.50455 4.8125C5.05386 4.8125 4.60804 4.90467 4.19282 5.08324C3.77794 5.26167 3.4023 5.52262 3.08693 5.85024L3.08628 5.85091L1.21488 7.78198C1.20932 7.78773 1.20389 7.7936 1.19861 7.7996C0.608683 8.46985 0.29328 9.3464 0.313407 10.2467C0.333536 11.147 0.687817 12.008 1.30754 12.6497C1.92778 13.292 2.76674 13.6653 3.65116 13.6865C4.53563 13.7078 5.39085 13.375 6.03965 12.7626C6.04526 12.7573 6.05076 12.7519 6.05612 12.7463L7.36633 11.3895C7.55815 11.1909 7.55262 10.8744 7.35398 10.6825C7.15534 10.4907 6.83881 10.4963 6.64698 10.6949L5.3452 12.0429C4.8856 12.4729 4.28781 12.7015 3.67513 12.6868C3.05881 12.6721 2.46812 12.412 2.02689 11.9551C1.58515 11.4976 1.32777 10.8781 1.31316 10.2244C1.29863 9.57448 1.52524 8.94649 1.94172 8.4689L3.80566 6.54553L3.80692 6.54422C4.0312 6.3111 4.29677 6.1271 4.58791 6.00189Z"/>

</symbol>
<symbol id="plus" viewBox="0 0 16 16">
  <g transform="translate(1 1.5)" fill-rule="evenodd">
    <rect x="6" width="2" height="13" rx="1"/>
    <rect x=".5" y="5.5" width="13" height="2" rx="1"/>
  </g>

</symbol>
<symbol id="sad-face" viewBox="0 0 52 52">
    <path fill="#D76B6B" fill-rule="nonzero" d="M26 52C11.64 52 0 40.36 0 26S11.64 0 26 0s26 11.64 26 26-11.64 26-26 26zm0-3.25c12.564 0 22.75-10.186 22.75-22.75S38.564 3.25 26 3.25 3.25 13.436 3.25 26 13.436 48.75 26 48.75zM15.708 33.042a2.167 2.167 0 1 1 0-4.334 2.167 2.167 0 0 1 0 4.334zm23.834 0a2.167 2.167 0 1 1 0-4.334 2.167 2.167 0 0 1 0 4.334zm-15.875 5.452a1.083 1.083 0 1 1-1.834-1.155c1.331-2.114 3.49-3.179 6.334-3.179 2.844 0 5.002 1.065 6.333 3.18a1.083 1.083 0 1 1-1.833 1.154c-.913-1.45-2.366-2.167-4.5-2.167s-3.587.717-4.5 2.167z"/>

</symbol>
<symbol id="toggler-down" viewBox="0 0 8 4">
<path d="M1.35355 0.146447C1.15829 -0.0488155 0.841709 -0.0488155 0.646447 0.146447C0.451184 0.341709 0.451184 0.658291 0.646447 0.853553L1.35355 0.146447ZM4 3.5L3.64645 3.85355C3.84171 4.04882 4.15829 4.04882 4.35355 3.85355L4 3.5ZM7.35355 0.853553C7.54882 0.658291 7.54882 0.341709 7.35355 0.146447C7.15829 -0.0488155 6.84171 -0.0488155 6.64645 0.146447L7.35355 0.853553ZM0.646447 0.853553L3.64645 3.85355L4.35355 3.14645L1.35355 0.146447L0.646447 0.853553ZM4.35355 3.85355L7.35355 0.853553L6.64645 0.146447L3.64645 3.14645L4.35355 3.85355Z" fill="#ADB5BD"/>

</symbol>
<symbol id="unlink" viewBox="0 0 14 14">
<path fill-rule="evenodd" clip-rule="evenodd" d="M7.35302 3.30511L8.6548 1.95705C9.1144 1.52715 9.71219 1.29848 10.3249 1.31317C10.9412 1.32794 11.5319 1.58801 11.9731 2.04493C12.4149 2.50237 12.6722 3.12189 12.6868 3.77565C12.7014 4.42552 12.4748 5.0535 12.0583 5.5311L10.1943 7.45447L10.1931 7.45578C9.9688 7.6889 9.70323 7.8729 9.41209 7.99811C9.121 8.1233 8.80955 8.1875 8.49545 8.1875C8.18135 8.1875 7.8699 8.1233 7.57881 7.99811C7.28767 7.8729 7.0221 7.6889 6.79782 7.45578C6.60637 7.25678 6.28985 7.25066 6.09085 7.44211C5.89185 7.63356 5.88573 7.95009 6.07718 8.14909C6.39268 8.47703 6.76855 8.73821 7.18372 8.91676C7.59893 9.09533 8.04475 9.1875 8.49545 9.1875C8.94614 9.1875 9.39196 9.09533 9.80718 8.91676C10.2221 8.73833 10.5977 8.47737 10.9131 8.14974L10.9137 8.14909L12.7851 6.21802C12.7907 6.21228 12.7961 6.2064 12.8014 6.2004C13.3913 5.53016 13.7067 4.6536 13.6866 3.7533C13.6665 2.85297 13.3122 1.99203 12.6925 1.35027C12.0722 0.70799 11.2333 0.334658 10.3488 0.313455C9.46437 0.29225 8.60915 0.625022 7.96035 1.23739C7.95474 1.24269 7.94924 1.24812 7.94388 1.25368L6.63367 2.61045C6.44185 2.8091 6.44738 3.12563 6.64602 3.31745C6.84466 3.50928 7.16119 3.50375 7.35302 3.30511ZM4.58791 6.00189C4.879 5.8767 5.19045 5.8125 5.50455 5.8125C5.81865 5.8125 6.1301 5.8767 6.4212 6.00189C6.71233 6.1271 6.9779 6.3111 7.20218 6.54422C7.39363 6.74322 7.71015 6.74934 7.90915 6.55789C8.10815 6.36644 8.11427 6.04991 7.92282 5.85091C7.60732 5.52297 7.23145 5.26179 6.81628 5.08324C6.40107 4.90467 5.95525 4.8125 5.50455 4.8125C5.05386 4.8125 4.60804 4.90467 4.19282 5.08324C3.77794 5.26167 3.4023 5.52262 3.08693 5.85024L3.08628 5.85091L1.21488 7.78198C1.20932 7.78773 1.20389 7.7936 1.19861 7.7996C0.608683 8.46985 0.29328 9.3464 0.313407 10.2467C0.333536 11.147 0.687817 12.008 1.30754 12.6497C1.92778 13.292 2.76674 13.6653 3.65116 13.6865C4.53563 13.7078 5.39085 13.375 6.03965 12.7626C6.04526 12.7573 6.05076 12.7519 6.05612 12.7463L7.36633 11.3895C7.55815 11.1909 7.55262 10.8744 7.35398 10.6825C7.15534 10.4907 6.83881 10.4963 6.64698 10.6949L5.3452 12.0429C4.8856 12.4729 4.28781 12.7015 3.67513 12.6868C3.05881 12.6721 2.46812 12.412 2.02689 11.9551C1.58515 11.4976 1.32777 10.8781 1.31316 10.2244C1.29863 9.57448 1.52524 8.94649 1.94172 8.4689L3.80566 6.54553L3.80692 6.54422C4.0312 6.3111 4.29677 6.1271 4.58791 6.00189Z"/>

</symbol></svg>