<?xml version="1.0" encoding="utf-8"?>
<svg xmlns="http://www.w3.org/2000/svg">
<symbol id="arrow-down" viewBox="0 0 14 14">
  <path transform="matrix(1 0 0 -1 0 14)" d="M8.024 4.1v8.6a1.125 1.125 0 0 1-2.25 0V4.1L2.18 7.695A1.125 1.125 0 1 1 .59 6.104L6.103.588c.44-.439 1.151-.439 1.59 0l5.516 5.516a1.125 1.125 0 0 1-1.59 1.59L8.023 4.1z"/>

</symbol>
<symbol id="arrow-up" viewBox="0 0 14 14">
    <path d="M8.024 4.1v8.6a1.125 1.125 0 0 1-2.25 0V4.1L2.18 7.695A1.125 1.125 0 1 1 .59 6.104L6.103.588c.44-.439 1.151-.439 1.59 0l5.516 5.516a1.125 1.125 0 0 1-1.59 1.59L8.023 4.1z"/>

</symbol>
<symbol id="bold" viewBox="0 0 10 12">
<path fill-rule="evenodd" clip-rule="evenodd" d="M0 1C0 0.447715 0.447715 0 1 0H5.75C6.61193 0 7.43859 0.342373 8.0481 0.951883C8.65759 1.56138 9 2.38803 9 3.24998C9 3.90856 8.80011 4.54653 8.43392 5.08278C8.62713 5.21087 8.80851 5.35875 8.97487 5.52511C9.63125 6.18148 10 7.07173 10 7.99998C10 8.92824 9.63125 9.81848 8.97487 10.4749C8.31851 11.1312 7.42828 11.5 6.5 11.5H1C0.447715 11.5 0 11.0523 0 10.5V1ZM2 6.5V9.5H6.5C6.89781 9.5 7.27934 9.34196 7.56066 9.06064C7.84196 8.77934 8 8.39781 8 7.99998C8 7.60216 7.84196 7.22062 7.56066 6.93932C7.27937 6.65803 6.89785 6.5 6.5 6.5H2ZM5.75 4.5H2V2H5.75C6.08154 2 6.39948 2.13169 6.63388 2.3661C6.8683 2.60052 7 2.91846 7 3.24998C7 3.5815 6.8683 3.89944 6.63388 4.13386C6.39945 4.3683 6.0815 4.5 5.75 4.5Z" fill="#212529"/>

</symbol>
<symbol id="cross" viewBox="0 0 237 237">
  <path transform="rotate(45 280.675 51.325)" d="M191 191V73c0-5.523 4.477-10 10-10h25c5.523 0 10 4.477 10 10v118h118c5.523 0 10 4.477 10 10v25c0 5.523-4.477 10-10 10H236v118c0 5.523-4.477 10-10 10h-25c-5.523 0-10-4.477-10-10V236H73c-5.523 0-10-4.477-10-10v-25c0-5.523 4.477-10 10-10h118z"/>

</symbol>
<symbol id="dots" viewBox="0 0 16 16">
  <g transform="translate(4 1.5)" fill-rule="evenodd">
    <circle cx="1.3" cy="1.3" r="1.3"/>
    <circle cx="6.5" cy="1.3" r="1.3"/>
    <circle cx="6.5" cy="6.5" r="1.3"/>
    <circle cx="1.3" cy="6.5" r="1.3"/>
    <circle cx="6.5" cy="11.7" r="1.3"/>
    <circle cx="1.3" cy="11.7" r="1.3"/>
  </g>

</symbol>
<symbol id="italic" viewBox="0 0 9 10">
<path fill-rule="evenodd" clip-rule="evenodd" d="M5.30622 1L2.63956 9H0.5C0.223858 9 0 9.22386 0 9.5C0 9.77614 0.223858 10 0.5 10H2.98357C2.99453 10.0004 3.00547 10.0004 3.01636 10H5.5C5.77614 10 6 9.77614 6 9.5C6 9.22386 5.77614 9 5.5 9H3.69365L6.36032 1H8.5C8.77614 1 9 0.776142 9 0.5C9 0.223858 8.77614 0 8.5 0H5.99985C5.99983 0 5.99981 0 5.99979 0H3.5C3.22386 0 3 0.223858 3 0.5C3 0.776142 3.22386 1 3.5 1H5.30622Z" fill="#212529"/>

</symbol>
<symbol id="link" viewBox="0 0 12 12">
<path fill-rule="evenodd" clip-rule="evenodd" d="M6.35376 2.75424L7.50991 1.55699C7.90787 1.18523 8.42477 0.987887 8.95411 1.00058C9.48705 1.01335 9.99832 1.23823 10.3806 1.63408C10.7633 2.03046 10.9867 2.56773 10.9994 3.13515C11.012 3.6987 10.8157 4.24293 10.4553 4.6567L8.79952 6.36531L8.79825 6.36662C8.60396 6.56857 8.37403 6.72784 8.12213 6.83618C7.87028 6.94449 7.6009 7 7.32929 7C7.05768 7 6.7883 6.94449 6.53644 6.83618C6.28454 6.72784 6.05461 6.56857 5.86032 6.36662C5.66887 6.16762 5.35235 6.1615 5.15335 6.35295C4.95435 6.54441 4.94823 6.86093 5.13968 7.05993C5.42519 7.3567 5.76543 7.59314 6.14136 7.75482C6.51733 7.91652 6.92108 8 7.32929 8C7.73749 8 8.14124 7.91652 8.51722 7.75482C8.89284 7.59328 9.23283 7.35708 9.5182 7.06065L9.5189 7.05993L11.1822 5.34357C11.1878 5.33783 11.1932 5.33195 11.1985 5.32595C11.7322 4.71953 12.0174 3.92676 11.9992 3.1128C11.981 2.29881 11.6607 1.52012 11.0999 0.939428C10.5387 0.358212 9.77913 0.0200687 8.97808 0.000864311C8.17698 -0.0183412 7.40268 0.283085 6.81552 0.837276C6.8099 0.842577 6.8044 0.848008 6.79904 0.853564L5.63441 2.05959C5.44259 2.25823 5.44812 2.57476 5.64676 2.76659C5.8454 2.95841 6.16193 2.95288 6.35376 2.75424ZM3.87787 5.16382C4.12972 5.05551 4.3991 5 4.67071 5C4.94232 5 5.2117 5.05551 5.46356 5.16382C5.71546 5.27216 5.94539 5.43143 6.13968 5.63338C6.33113 5.83238 6.64765 5.8385 6.84665 5.64705C7.04565 5.4556 7.05177 5.13907 6.86032 4.94007C6.57481 4.6433 6.23457 4.40686 5.85864 4.24518C5.48267 4.08348 5.07892 4 4.67071 4C4.26251 4 3.85876 4.08348 3.48278 4.24518C3.10714 4.40673 2.76713 4.64294 2.48175 4.9394L2.4811 4.94007L0.817774 6.65644C0.812211 6.66218 0.806787 6.66805 0.801505 6.67405C0.267757 7.28047 -0.017377 8.07324 0.000820312 8.8872C0.0190181 9.70119 0.339319 10.4799 0.900076 11.0606C1.46134 11.6418 2.22087 11.9799 3.02192 11.9991C3.82302 12.0183 4.59732 11.7169 5.18449 11.1627C5.1901 11.1574 5.1956 11.152 5.20096 11.1464L6.36559 9.94041C6.55741 9.74177 6.55188 9.42524 6.35324 9.23341C6.1546 9.04159 5.83807 9.04712 5.64624 9.24576L4.49009 10.443C4.09213 10.8148 3.57523 11.0121 3.04589 10.9994C2.51295 10.9866 2.00168 10.7618 1.61942 10.3659C1.23665 9.96954 1.01326 9.43227 1.00057 8.86485C0.987971 8.3013 1.18433 7.75707 1.54467 7.3433L3.20048 5.63469L3.20175 5.63338C3.39604 5.43143 3.62597 5.27216 3.87787 5.16382Z" fill="#212529"/>

</symbol>
<symbol id="plus" viewBox="0 0 16 16">
  <g transform="translate(1 1.5)" fill-rule="evenodd">
    <rect x="6" width="2" height="13" rx="1"/>
    <rect x=".5" y="5.5" width="13" height="2" rx="1"/>
  </g>

</symbol>
<symbol id="sad-face" viewBox="0 0 52 52">
    <path fill="#D76B6B" fill-rule="nonzero" d="M26 52C11.64 52 0 40.36 0 26S11.64 0 26 0s26 11.64 26 26-11.64 26-26 26zm0-3.25c12.564 0 22.75-10.186 22.75-22.75S38.564 3.25 26 3.25 3.25 13.436 3.25 26 13.436 48.75 26 48.75zM15.708 33.042a2.167 2.167 0 1 1 0-4.334 2.167 2.167 0 0 1 0 4.334zm23.834 0a2.167 2.167 0 1 1 0-4.334 2.167 2.167 0 0 1 0 4.334zm-15.875 5.452a1.083 1.083 0 1 1-1.834-1.155c1.331-2.114 3.49-3.179 6.334-3.179 2.844 0 5.002 1.065 6.333 3.18a1.083 1.083 0 1 1-1.833 1.154c-.913-1.45-2.366-2.167-4.5-2.167s-3.587.717-4.5 2.167z"/>

</symbol>
<symbol id="toggler-down" viewBox="0 0 8 4">
<path d="M1.35355 0.146447C1.15829 -0.0488155 0.841709 -0.0488155 0.646447 0.146447C0.451184 0.341709 0.451184 0.658291 0.646447 0.853553L1.35355 0.146447ZM4 3.5L3.64645 3.85355C3.84171 4.04882 4.15829 4.04882 4.35355 3.85355L4 3.5ZM7.35355 0.853553C7.54882 0.658291 7.54882 0.341709 7.35355 0.146447C7.15829 -0.0488155 6.84171 -0.0488155 6.64645 0.146447L7.35355 0.853553ZM0.646447 0.853553L3.64645 3.85355L4.35355 3.14645L1.35355 0.146447L0.646447 0.853553ZM4.35355 3.85355L7.35355 0.853553L6.64645 0.146447L3.64645 3.14645L4.35355 3.85355Z" fill="#ADB5BD"/>

</symbol>
<symbol id="unlink" viewBox="0 0 12 12">
<path fill-rule="evenodd" clip-rule="evenodd" d="M6.35376 2.75424L7.50991 1.55699C7.90787 1.18523 8.42477 0.987887 8.95411 1.00058C9.48705 1.01335 9.99832 1.23823 10.3806 1.63408C10.7633 2.03046 10.9867 2.56773 10.9994 3.13515C11.012 3.6987 10.8157 4.24293 10.4553 4.6567L8.79952 6.36531L8.79825 6.36662C8.60396 6.56857 8.37403 6.72784 8.12213 6.83618C7.87028 6.94449 7.6009 7 7.32929 7C7.05768 7 6.7883 6.94449 6.53644 6.83618C6.28454 6.72784 6.05461 6.56857 5.86032 6.36662C5.66887 6.16762 5.35235 6.1615 5.15335 6.35295C4.95435 6.54441 4.94823 6.86093 5.13968 7.05993C5.42519 7.3567 5.76543 7.59314 6.14136 7.75482C6.51733 7.91652 6.92108 8 7.32929 8C7.73749 8 8.14124 7.91652 8.51722 7.75482C8.89284 7.59328 9.23283 7.35708 9.5182 7.06065L9.5189 7.05993L11.1822 5.34357C11.1878 5.33783 11.1932 5.33195 11.1985 5.32595C11.7322 4.71953 12.0174 3.92676 11.9992 3.1128C11.981 2.29881 11.6607 1.52012 11.0999 0.939428C10.5387 0.358212 9.77913 0.0200687 8.97808 0.000864311C8.17698 -0.0183412 7.40268 0.283085 6.81552 0.837276C6.8099 0.842577 6.8044 0.848008 6.79904 0.853564L5.63441 2.05959C5.44259 2.25823 5.44812 2.57476 5.64676 2.76659C5.8454 2.95841 6.16193 2.95288 6.35376 2.75424ZM3.87787 5.16382C4.12972 5.05551 4.3991 5 4.67071 5C4.94232 5 5.2117 5.05551 5.46356 5.16382C5.71546 5.27216 5.94539 5.43143 6.13968 5.63338C6.33113 5.83238 6.64765 5.8385 6.84665 5.64705C7.04565 5.4556 7.05177 5.13907 6.86032 4.94007C6.57481 4.6433 6.23457 4.40686 5.85864 4.24518C5.48267 4.08348 5.07892 4 4.67071 4C4.26251 4 3.85876 4.08348 3.48278 4.24518C3.10714 4.40673 2.76713 4.64294 2.48175 4.9394L2.4811 4.94007L0.817774 6.65644C0.812211 6.66218 0.806787 6.66805 0.801505 6.67405C0.267757 7.28047 -0.017377 8.07324 0.000820312 8.8872C0.0190181 9.70119 0.339319 10.4799 0.900076 11.0606C1.46134 11.6418 2.22087 11.9799 3.02192 11.9991C3.82302 12.0183 4.59732 11.7169 5.18449 11.1627C5.1901 11.1574 5.1956 11.152 5.20096 11.1464L6.36559 9.94041C6.55741 9.74177 6.55188 9.42524 6.35324 9.23341C6.1546 9.04159 5.83807 9.04712 5.64624 9.24576L4.49009 10.443C4.09213 10.8148 3.57523 11.0121 3.04589 10.9994C2.51295 10.9866 2.00168 10.7618 1.61942 10.3659C1.23665 9.96954 1.01326 9.43227 1.00057 8.86485C0.987971 8.3013 1.18433 7.75707 1.54467 7.3433L3.20048 5.63469L3.20175 5.63338C3.39604 5.43143 3.62597 5.27216 3.87787 5.16382Z" fill="#212529"/>

</symbol></svg>