<svg width="10" height="12" viewBox="0 0 10 12" fill="none" xmlns="http://www.w3.org/2000/svg">
<path fill-rule="evenodd" clip-rule="evenodd" d="M0 1C0 0.447715 0.447715 0 1 0H5.75C6.61193 0 7.43859 0.342373 8.0481 0.951883C8.65759 1.56138 9 2.38803 9 3.24998C9 3.90856 8.80011 4.54653 8.43392 5.08278C8.62713 5.21087 8.80851 5.35875 8.97487 5.52511C9.63125 6.18148 10 7.07173 10 7.99998C10 8.92824 9.63125 9.81848 8.97487 10.4749C8.31851 11.1312 7.42828 11.5 6.5 11.5H1C0.447715 11.5 0 11.0523 0 10.5V1ZM2 6.5V9.5H6.5C6.89781 9.5 7.27934 9.34196 7.56066 9.06064C7.84196 8.77934 8 8.39781 8 7.99998C8 7.60216 7.84196 7.22062 7.56066 6.93932C7.27937 6.65803 6.89785 6.5 6.5 6.5H2ZM5.75 4.5H2V2H5.75C6.08154 2 6.39948 2.13169 6.63388 2.3661C6.8683 2.60052 7 2.91846 7 3.24998C7 3.5815 6.8683 3.89944 6.63388 4.13386C6.39945 4.3683 6.0815 4.5 5.75 4.5Z" fill="#212529"/>
</svg>
