<svg width="9" height="10" viewBox="0 0 9 10" fill="none" xmlns="http://www.w3.org/2000/svg">
<path fill-rule="evenodd" clip-rule="evenodd" d="M5.30622 1L2.63956 9H0.5C0.223858 9 0 9.22386 0 9.5C0 9.77614 0.223858 10 0.5 10H2.98357C2.99453 10.0004 3.00547 10.0004 3.01636 10H5.5C5.77614 10 6 9.77614 6 9.5C6 9.22386 5.77614 9 5.5 9H3.69365L6.36032 1H8.5C8.77614 1 9 0.776142 9 0.5C9 0.223858 8.77614 0 8.5 0H5.99985C5.99983 0 5.99981 0 5.99979 0H3.5C3.22386 0 3 0.223858 3 0.5C3 0.776142 3.22386 1 3.5 1H5.30622Z" fill="#212529"/>
</svg>
