<svg width="12" height="12" viewBox="0 0 12 12" fill="none" xmlns="http://www.w3.org/2000/svg">
<path fill-rule="evenodd" clip-rule="evenodd" d="M6.35376 2.75424L7.50991 1.55699C7.90787 1.18523 8.42477 0.987887 8.95411 1.00058C9.48705 1.01335 9.99832 1.23823 10.3806 1.63408C10.7633 2.03046 10.9867 2.56773 10.9994 3.13515C11.012 3.6987 10.8157 4.24293 10.4553 4.6567L8.79952 6.36531L8.79825 6.36662C8.60396 6.56857 8.37403 6.72784 8.12213 6.83618C7.87028 6.94449 7.6009 7 7.32929 7C7.05768 7 6.7883 6.94449 6.53644 6.83618C6.28454 6.72784 6.05461 6.56857 5.86032 6.36662C5.66887 6.16762 5.35235 6.1615 5.15335 6.35295C4.95435 6.54441 4.94823 6.86093 5.13968 7.05993C5.42519 7.3567 5.76543 7.59314 6.14136 7.75482C6.51733 7.91652 6.92108 8 7.32929 8C7.73749 8 8.14124 7.91652 8.51722 7.75482C8.89284 7.59328 9.23283 7.35708 9.5182 7.06065L9.5189 7.05993L11.1822 5.34357C11.1878 5.33783 11.1932 5.33195 11.1985 5.32595C11.7322 4.71953 12.0174 3.92676 11.9992 3.1128C11.981 2.29881 11.6607 1.52012 11.0999 0.939428C10.5387 0.358212 9.77913 0.0200687 8.97808 0.000864311C8.17698 -0.0183412 7.40268 0.283085 6.81552 0.837276C6.8099 0.842577 6.8044 0.848008 6.79904 0.853564L5.63441 2.05959C5.44259 2.25823 5.44812 2.57476 5.64676 2.76659C5.8454 2.95841 6.16193 2.95288 6.35376 2.75424ZM3.87787 5.16382C4.12972 5.05551 4.3991 5 4.67071 5C4.94232 5 5.2117 5.05551 5.46356 5.16382C5.71546 5.27216 5.94539 5.43143 6.13968 5.63338C6.33113 5.83238 6.64765 5.8385 6.84665 5.64705C7.04565 5.4556 7.05177 5.13907 6.86032 4.94007C6.57481 4.6433 6.23457 4.40686 5.85864 4.24518C5.48267 4.08348 5.07892 4 4.67071 4C4.26251 4 3.85876 4.08348 3.48278 4.24518C3.10714 4.40673 2.76713 4.64294 2.48175 4.9394L2.4811 4.94007L0.817774 6.65644C0.812211 6.66218 0.806787 6.66805 0.801505 6.67405C0.267757 7.28047 -0.017377 8.07324 0.000820312 8.8872C0.0190181 9.70119 0.339319 10.4799 0.900076 11.0606C1.46134 11.6418 2.22087 11.9799 3.02192 11.9991C3.82302 12.0183 4.59732 11.7169 5.18449 11.1627C5.1901 11.1574 5.1956 11.152 5.20096 11.1464L6.36559 9.94041C6.55741 9.74177 6.55188 9.42524 6.35324 9.23341C6.1546 9.04159 5.83807 9.04712 5.64624 9.24576L4.49009 10.443C4.09213 10.8148 3.57523 11.0121 3.04589 10.9994C2.51295 10.9866 2.00168 10.7618 1.61942 10.3659C1.23665 9.96954 1.01326 9.43227 1.00057 8.86485C0.987971 8.3013 1.18433 7.75707 1.54467 7.3433L3.20048 5.63469L3.20175 5.63338C3.39604 5.43143 3.62597 5.27216 3.87787 5.16382Z" fill="#212529"/>
</svg>
